<?xml version="1.0" encoding="utf-8"?>
<!-- Generator: Adobe Illustrator 23.0.1, SVG Export Plug-In . SVG Version: 6.00 Build 0)  -->
<svg version="1.1" id="Layer_1" xmlns="http://www.w3.org/2000/svg" xmlns:xlink="http://www.w3.org/1999/xlink" x="0px" y="0px"
	 viewBox="0 0 600 600" style="enable-background:new 0 0 600 600;" xml:space="preserve">
<style type="text/css">
	.st0{fill:#F87060;}
</style>
<g>
	<path class="st0" d="M577.2,298.1c-4.1-3.3-6.1-10.1-8.5-14.6c-3.1-5.9-6.4-11.6-9.7-17.3c-6.8-11.7-12.2-24.1-18.8-35.9
		c-6.9-12.4-13.9-24.8-20.9-37.2c-1.4-2.4-8.9-13.1-6.4-14.6c1.5,2.2,5,5.1,6,7.2c0-0.1,0-0.1,0-0.1c-4.4-3.6-7.8-13-10.8-17.9
		c-4.6-7.6-9.1-15.2-13.4-23c-4.3-8.5-8.9-16.8-12.7-25.6c-2.2,1.1,3.9,11.5,5.1,14.1c-4.4-1.4-6.8-8.4-8.7-12.2
		c-2.9-5.8-5.6-11.7-8.5-17.5c-2-4.2-17.7-34.8-15-36c7,17.3,15,34.2,24.9,50c0.2-5.2-4.2-11.3-6.3-15.9c-3-6.4-6-12.9-9.1-19.3
		c-2.9-6.2-5.7-12.4-9.7-18c-3.2-4.4-6.3-7.2-9-11.9c-3.9-6.8-4.5-1.6-10-1.7c-5.6-0.1-11.3-0.7-16.9-0.9
		c-12.6-0.3-24.9-1.6-37.5-1.1c-27,1.1-54,0.9-81.1,1.8c-28.3,1-57.1,0.7-85.4-0.5c0.4-1.4,0.9-2.8,1.3-4.1
		c-4.8,6.9-14.7,3.3-22.2,3c-6-0.3-11.9-0.4-17.9-0.3c-2.5,0.1-12.2,2.2-13.6-0.2c-0.6,2.9-1.2,5.9-1.8,8.8
		c-1.9,0.6-3.2,1.6-4.5,3.1c-2.7,3.5-6,6.9-7,11.4c-0.7,3.1-3.4,3.7-3.4,6.9c0,2.4,0.1,2-2.2,3.9c-2.8,2.3-3.9,5.1-5.8,8.1
		c-13.2,20.4-25.8,41-38.1,62C88,172.5,73.9,191,62.4,211c-11.6,20.2-25.6,39.8-34.7,61.2c-2.1,4.9-4.6,9.5-7.2,14.1
		c-3.2,5.8-3.2,8.7,0.2,14.4c6.9,11.4,13.5,23,20,34.6c11.4,20.4,22.2,41.3,34.2,61.3c14.8,24.5,27,50.2,42.5,74.4
		c11.2,17.5,17.1,38,29.6,54.5c1.9,2.6,9.3,26,14.4,22c4.2-3.3,4.4-4.6,10.4-5c7.3-0.6,14.5-0.7,21.8-0.6c25.9,0.4,51.7,0,77.5-0.4
		c24.3-0.3,49.5,3.5,73.6-0.2c3.7-0.6,6.4,1.3,10.1,0.6c4.1-0.8,8.1-1.3,12.2-2c3.6-0.7,7,1,11.1,1.3c7,0.5,14,1,21.1,1.4
		c11.9,0.7,23.8,1.5,35.7,2.1c2.9,0.1,4.9-0.2,7.7-0.7c-0.2-1.8-1.6-4.5-0.7-6.3c2-3.9,2.8-9,7-11.4c7.8-4.6,13.2-16.7,17.6-24.6
		c6.3-11.4,12.4-22.9,18.6-34.4c5.6-10.5,11.1-21,16.9-31.4c2.4-4.3,4-8.9,6.8-13c3.9-5.7,8.1-11.2,12-17
		c8.6-12.8,15.8-26.5,23.2-40c1.6-2.8,2-6.1,3-9.2c0.7-2.2,3.6-4.4,5-6.3c3.9-5.4,6.4-10.8,9.7-16.4c-1.7,2.7,0.1-4.1,2.1-1.5
		c1.2-2.7,2.1-5.5,3.5-8.1c-1.8,3.3,2.2-5.3,2.7-6.1c1.5-3,3.3-5.9,5.1-8.7C578.1,305.2,582.2,302.1,577.2,298.1
		C576.3,297.4,580.8,301,577.2,298.1z M297.5,294.3c1.3,2.2,11.4,16.5,10.3,17.7c2.3,3.8,3,8.4,4.9,12.4c-9.8,2.6-17.6,4.2-28.5,3.3
		c-6-0.5-12.3-4.9-16.3-9.2c-5.2-5.5-5.6-11.8-7.6-18.7c-1.8-6.1-1.5-12.5,0.7-18.5c1.7-4.6,6.3-14.8,11.2-16.6
		c5.3-2,8.5,0.5,11.3,5.3C288.1,278.1,292.7,286.2,297.5,294.3C300.9,300.2,292.1,285.3,297.5,294.3z M327,340.4
		c0.9,0.3,1.7,0.6,2.6,0.8c-0.9-6.2,1.8-9,6.4-13.3c5.9-5.6,8.5-11.8,11.8-19c-1.3,0.5-2.5,1-3.8,1.5c3.5-5.4,3.3-9.7,3.6-16.1
		c0.1-2.9-1.7-19.2-0.7-19.7c-2.8-6-5.8-12-9-17.8c-3.6-6.4-8.8-8.9-15.3-11.7c0.3,1.5-0.3,1.6-1.9,0.4c-2.4-0.7-5.1-0.6-7.6-0.7
		c-4.8-0.1-9.7-0.4-14.1-2.5c-9.1-4.3-13.8,4.5-21.8,4.8c-5.5,0.2-12.3-13.7-14.8-17.6c-5.1-7.9-9.9-16-12.6-25
		c9.1-1.7,18.3-4.4,27.6-3.3c3.6,0.4,7.2,0.7,10.9,0.9c11.5,0.9,23.5,1.3,34.7,3.8c-2.3,0.3-4.5-0.6-6.9-0.2
		c6.5-1.1,14.7,0.5,21.4,0.4c5.2-0.1,7.6,1.4,10.8,5.1c2.9,3.3,8,4.9,11.8,6.7c9.5,4.4,19.1,8.9,28.1,14.3c4.2,2.5,5,5.6,7.5,9.5
		c2.7,4.2,7.5,7.4,11.1,11c3.3,3.4,5.5,7.7,7.9,11.7c3.2,3.1,6.5,6.1,9.4,9.5c5.4,6.2,8.8,14.1,10.5,21.9c0.7,3.3-3.9,8.9-5.2,11.8
		c-2.1,4.7-4,9.4-6,14.1c-3.8,8.8-7.1,17-17.8,17.7c1.3,0.5,2.7,1,4,1.4c-16.9,19.6-40,31.5-64.4,39.1c-0.6-3.3-3.1-5-4.5-8.1
		c-1.5-3.4-2.2-7.1-3.1-10.6C335.3,352.7,332.4,347.6,327,340.4C328,340.8,329.7,344,327,340.4z M230.7,174c1.7,4,3.4,7.1,6.1,10.9
		c1.2,1.7,2.4,3.4,3.6,5c1.2,0.4,2.7,0.5,3.3,1.7c2.6,5.9-14.2,8.9-18.2,10.6c-9,3.7-15.6,9.1-21.8,16.5
		c-6.6,7.9-15.2,13.9-21.8,22.1c-11,13.6-24,30.9-25.9,48.8c-1.8,17.4,9,35.2,21,47.1c-1.8-0.1-4.8,2.6-4.5,4.5
		c3,0.7,5.8,2.1,8.4,3.8c5.2,3.5,9,8.9,14.3,12.2c4.5,2.8,7.4,6.6,11.8,9.3c5.8,3.6,11.7,6.5,18.2,9.3c-3.3,1.2,3.2,3,4.9,3.9
		c2.4,1.5,5.2,3.1,7.9,3.9c8.1,2.5,16.1,5.3,24.2,7.5c13.3,3.7,26,7,39.5,8.8c0.3-3.4-3.9,0.7-4.2-2.2c16.4-1.9,32.9-5.5,49.3-6.8
		c5-0.4,9.9,13.4,11.9,17c5.4,9.5,10.8,19.1,16.1,28.6c1,1.8,5,6.5,3.9,9c-1,2.3-6.2,3-8.2,4c-8.5,4.3-15,8-24.5,10.2
		c-9.7,2.3-19.4,4.3-29.1,6.4c-2.9,0.6-8.7-0.3-11.2,1.4c-3.3,2.3-7.7,2.5-11.5,2.3c-16.6-0.7-33.9-2.7-50.2-5.7
		c-8.4-1.5-17.1-6.6-24.8-10.2c-9-4.2-17.9-9-25.9-14.9c-15.1-11.1-28.4-25.3-39-40.7c-1-1.5-1.5-3.2-1.6-5
		c-2.2-1.6-2.8-2.1-4.3-4.6c-2.5-4.2-5-8.3-7.4-12.6c-2.3-4.1-2.7-6.3-3.4-10.7c-0.4-2.4-1.2-4.8-1.8-7.2c-0.8-2.8-0.8-2.3-2.8-0.2
		c-6.8-21.8-12.9-42.7-12.8-65.7c0.1-23.1,5.6-45.4,13.6-66.9c7.1-18.9,17.8-37.4,31-52.7c6.3-7.3,13.4-13.6,21-19.6
		c4.1-3.2,8.1-6.5,12.4-9.4c3.9-2.7,7.7-1.4,10.8-4.9c4.8,4.8,8.1,10.8,11.3,16.7C223.6,161.7,227.9,167.5,230.7,174
		C231.2,175,229.3,170.6,230.7,174z M565.1,303.1c-20.8,41-45.3,79.8-68.9,119.2c-11.5,19.2-19.9,40.3-29.9,60.3
		c-9,17.9-20.8,33.9-30.9,51.3c-1.6-3.3-3.2-6.6-4.8-9.9c-3.2-6.6-0.2,3-1.2,3.4c-3.6-6.9-7.1-13.7-11.1-20.4
		c-4.1-6.9-9-12.9-12.4-20.3c-3.2-7.1-6-14.5-9-21.7c-1.3-3.1-3-5.8-4.6-8.7c3.3-2.5,6.5-4.9,9.4-7.9c5.8-6,14.6-8.3,20.4-14.6
		c6.3-6.9,12.5-13.9,18.7-20.9s11.3-13.4,15.5-21.8c3.8-7.8,7.6-14.3,13.1-21c-4.1-3.3,4.6-11.7,1.9-13.6c-1.8,3-3.5,6-5.3,9.1
		c3-9.6,9.2-16.6,11.7-26.3c2.7-10.4,5.3-20.3,6.9-31c2-10.1,1.9-19.9,2.3-30.1c0.3-10.3-5.4-19.8-4.6-30.4
		c-2.7-0.2-7.9-24.5-9.4-28.6c0.1-4.5-3.8-11.4-5.9-15.1c-10.4-18.5-20.8-35.9-36.1-50.7c-15.8-15.4-33.6-26.2-53.4-35.5
		c-4.7-2.2-9.3-4.2-13.5-7.3c-5.5,0.1-10.4-2-15.7-3.4c-12.5-3.1-25.3-4.8-38.1-5.5c-10-0.5-20.8-0.8-30.6,0.8
		c-10.7,1.9-21.5,2.5-31.8,6.1c-9.2,3.2-18,6.3-27,9.8c-3.8,1.5-8.7,4.7-12.9,4.9c-3.5,0.2-6.3-7.3-7.6-9.6
		c-2.6-4.8-5.2-10-8.4-14.5c-3.4-5.6-4.2-7.5-4.2-14c-1.4-0.4-2,1.3-2.8,2.3c-4.7-7.7-9.2-15.4-13.7-23.2
		c42.1-2.4,84.5-1.2,126.7-1.9c0-0.1,11.5-0.4,13.6-0.7c6-0.8,12-1.2,18-1.4c11.7-0.3,23.4-0.3,35.1-0.8c12.4-0.6,24.7-0.7,37.1-0.6
		c6,0,12.1-0.1,18.1,0.4c5,0.4,11.2-0.4,15.6,2.5c7.5,5,10.9,18.8,14.6,26.6c5,10.5,10.1,20.9,15.3,31.3
		c10.2,20.7,22.3,39.8,34.2,59.5c12.8,21.2,25.9,42.3,37.7,64.1c5.2,9.7,9.4,19.8,15.1,29.2C557,280,570,293.5,565.1,303.1
		C561.5,310.3,566.1,301.1,565.1,303.1z"/>
	<path class="st0" d="M160.3,47.9c-0.2,0.9-0.5,1.8-0.7,2.7C160.1,49.9,160.6,48.5,160.3,47.9z"/>
	<path class="st0" d="M518.5,188.2c2.1,4.1,4.3,8,6.6,12c1.7-1-5-12.3-6.1-14.5C518.5,186.5,518.4,187.3,518.5,188.2
		C520.5,192.3,518.2,187.6,518.5,188.2z"/>
	<path class="st0" d="M236.5,185.1c0.2,1.3,0.3,2.7,0.5,4C236.9,187.7,237,186.2,236.5,185.1z"/>
	<path class="st0" d="M309,207.9C308.8,208,309.1,208,309,207.9L309,207.9z"/>
</g>
</svg>
